
<svg xmlns="http://www.w3.org/2000/svg" viewBox="0 0 128 128">
<path fill="#9C033A" d="M117.5 33.5l.3-.2c-.6-1.1-1.5-2.1-2.4-2.6L67.1 2.9c-.8-.5-1.9-.7-3.1-.7-1.2 0-2.3.3-3.1.7l-48 27.9c-1.7 1-2.9 3.5-2.9 5.4v55.7c0 1.1.2 2.4 1 3.5l.1.2c.5.4 1.2.6 1.9.6 1.2 0 2.3-.3 3.1-.7l48-27.9c1.7-1 2.9-3.5 2.9-5.4V36.1c.1-.8.3-1.6.7-2.6z"/>
<path fill="#9C033A" d="M64 33.6c-.4 0-.8.1-1.2.2l-40 23.1c-.7.4-1.3 1.3-1.3 2.1v46.2c0 .8.6 1.7 1.3 2.1l40 23.1c.4.1.8.2 1.2.2.4 0 .8-.1 1.2-.2l40-23.1c.7-.4 1.3-1.3 1.3-2.1V59c0-.8-.6-1.7-1.3-2.1L65.2 33.8c-.4-.1-.8-.2-1.2-.2z"/>
<text x="64" y="75" font-family="Arial, sans-serif" font-size="24" font-weight="bold" text-anchor="middle" fill="white">C++</text>
</svg>
