
<svg xmlns="http://www.w3.org/2000/svg" viewBox="0 0 128 128">
<path fill="#092E20" d="M59.448 0h20.93v96.88c-10.737 2.04-18.62 2.855-27.181 2.855-25.551 0-38.87-11.551-38.87-33.705 0-21.338 14.135-35.2 36.015-35.2 3.398 0 5.98.272 9.106 1.087zm0 48.765c-2.446-.815-4.485-1.087-7.067-1.087-10.6 0-16.717 6.523-16.717 17.939 0 11.145 5.845 17.26 16.717 17.26 2.31 0 4.893-.136 7.067-.408z"/>
<path fill="#092E20" d="M128 35.805V81.13c0 15.581-1.224 23.044-4.893 29.567-3.398 6.118-7.883 10.054-17.396 12.774l-19.706-9.376c9.513-2.584 13.998-6.118 16.717-11.009 2.855-5.027 3.806-11.145 3.806-26.726V35.805zm-20.022-15.174h20.022v12.231H107.978z"/>
</svg>
