
<svg xmlns="http://www.w3.org/2000/svg" viewBox="0 0 128 128">
<circle cx="64" cy="64" r="60" fill="#005571"/>
<path fill="#F04E98" d="M64 20c-5.5 0-10 4.5-10 10h20c0-5.5-4.5-10-10-10z"/>
<path fill="#17A2B8" d="M44 40c0-5.5 4.5-10 10-10h20c5.5 0 10 4.5 10 10H44z"/>
<path fill="#F9A825" d="M44 60c0-5.5 4.5-10 10-10h30c5.5 0 10 4.5 10 10H44z"/>
<path fill="#17A2B8" d="M44 80c0-5.5 4.5-10 10-10h20c5.5 0 10 4.5 10 10H44z"/>
<path fill="#F04E98" d="M74 100c0 5.5-4.5 10-10 10s-10-4.5-10-10h20z"/>
<text x="64" y="118" font-family="Arial, sans-serif" font-size="8" text-anchor="middle" fill="white">Elasticsearch</text>
</svg>
