
<svg xmlns="http://www.w3.org/2000/svg" viewBox="0 0 128 128">
<path fill="#00ADD8" d="M18.8 1h90.5v126H18.8z"/>
<path fill="#29BEB0" d="M19.2 126V1h89.6c18.8 0 34.1 15.3 34.1 34.1v56.8c0 18.8-15.3 34.1-34.1 34.1H19.2z"/>
<path fill="#00ADD8" d="M47 36.9h-5.7L30.8 22.5c-.4-.4-.9-.5-1.4-.5-.8 0-1.5.7-1.5 1.6 0 .4.1.7.4 1l7.2 9.3H20.2c-.9 0-1.6.7-1.6 1.6s.7 1.6 1.6 1.6h9.4l-7.2 9.3c-.2.3-.4.6-.4 1 0 .9.7 1.6 1.5 1.6.5 0 1-.2 1.4-.5L35.4 33h5.8c.9 0 1.6-.7 1.6-1.6s-.8-1.5-1.6-1.5c.2 0 .2 0 0 0l5.8-6.8z"/>
<path fill="#007D9C" d="M51.7 38c-.9 0-1.6.7-1.6 1.6s.7 1.6 1.6 1.6h10.7c.9 0 1.6-.7 1.6-1.6s-.7-1.6-1.6-1.6H51.7z"/>
<path fill="#00ADD8" d="M95.2 36.9H73.5c-.9 0-1.6.7-1.6 1.6s.7 1.6 1.6 1.6h21.7c.9 0 1.6-.7 1.6-1.6s-.7-1.6-1.6-1.6z"/>
<path fill="white" d="M45.6 58.6c5.1 0 7.8-2.4 7.8-5.8 0-2.8-1.8-4.8-5.1-5.6v-.1c2.5-.9 4-2.7 4-5.1 0-3.3-2.6-5.4-7.2-5.4h-8.4v22h8.9zm-5.8-19.2h4.8c2.6 0 3.8 1.2 3.8 3s-1.2 3-3.8 3h-4.8v-6zm0 8.7h5.2c2.9 0 4.1 1.2 4.1 3.2s-1.2 3.2-4.1 3.2h-5.2v-6.4z"/>
<path fill="white" d="M59.2 58.6c4.5 0 7.2-2.4 7.2-6.2s-2.7-6.2-7.2-6.2-7.2 2.4-7.2 6.2 2.7 6.2 7.2 6.2zm0-10.7c2.5 0 4 1.6 4 4.5s-1.5 4.5-4 4.5-4-1.6-4-4.5 1.5-4.5 4-4.5z"/>
<path fill="white" d="M86.7 58.3v-8.7l6.8 8.7h4.1V36.6h-3.2v8.4l-6.5-8.4h-4.4v21.7h3.2z"/>
<path fill="white" d="M78.4 54.1c-.7 1.4-2.1 2.4-4.1 2.4-2.5 0-4-1.6-4-4.5s1.5-4.5 4-4.5c2 0 3.4 1 4.1 2.4h3.4c-.8-3.2-3.6-5.1-7.5-5.1-4.5 0-7.2 2.4-7.2 6.2s2.7 6.2 7.2 6.2c3.9 0 6.7-1.9 7.5-5.1h-3.4z"/>
</svg>
