
<svg xmlns="http://www.w3.org/2000/svg" viewBox="0 0 128 128">
<path fill="#FCC624" d="M64 127.4c35.4 0 64-28.6 64-64s-28.6-64-64-64-64 28.6-64 64 28.6 64 64 64z"/>
<path fill="#000" d="M64 6.9c-31.4 0-56.8 25.4-56.8 56.8S32.6 120.5 64 120.5s56.8-25.4 56.8-56.8S95.4 6.9 64 6.9zm20.7 98.3c-1.3.6-3.3.3-4.4-1.1l-2.8-3.5c-.8-1-1.2-2.2-1.2-3.4v-4.6h-25v4.6c0 1.2-.4 2.4-1.2 3.4l-2.8 3.5c-1.1 1.4-3.1 1.7-4.4 1.1-1.3-.6-1.9-2.1-1.3-3.5l1.7-4.3c.4-1 .6-2.1.6-3.2V85h40v8.7c0 1.1.2 2.2.6 3.2l1.7 4.3c.6 1.4 0 2.9-1.3 3.5z"/>
<path fill="#000" d="M64 80.5c-13.8 0-25-11.2-25-25s11.2-25 25-25 25 11.2 25 25-11.2 25-25 25zm-8-32c-1.1 0-2 .9-2 2s.9 2 2 2 2-.9 2-2-.9-2-2-2zm16 0c-1.1 0-2 .9-2 2s.9 2 2 2 2-.9 2-2-.9-2-2-2z"/>
</svg>
