
<svg xmlns="http://www.w3.org/2000/svg" viewBox="0 0 128 128">
<path fill="#599636" d="M88.038 2.247L64 126.251 39.962 2.247c-1.147-.592-2.491-.592-3.639 0-16.852 9.737-31.724 23.648-42.943 40.219C-16.6 60.838-18.4 83.683 12.673 104.598c31.073 20.915 63.158 17.642 64 16 .842 1.642 32.927 4.915 64-16C171.746 83.683 169.946 60.838 159.966 42.466 148.747 25.895 133.875 12.984 117.023 3.247c-1.148-.6-2.492-.6-3.639-.001"/>
<path fill="#6cac48" d="M64 126.251s1.515-61.25 1.515-81.25S59.5 6.251 64 2.247C68.5 6.251 62.485 25.001 62.485 45.001s1.515 81.25 1.515 81.25"/>
</svg>
