
<svg xmlns="http://www.w3.org/2000/svg" viewBox="0 0 128 128">
<path fill="#00618A" d="M2.001 90.458c0-4.799.855-9.598 2.564-13.539L39.14 6.001c1.71-3.941 5.134-6.001 9.932-6.001h29.856c4.798 0 8.222 2.06 9.932 6.001l34.575 70.918c1.709 3.941 2.564 8.74 2.564 13.539v20.457c0 9.598-7.678 17.085-17.076 17.085H19.077c-9.398 0-17.076-7.487-17.076-17.085V90.458z"/>
<path fill="#E48E00" d="M23.715 93.479c-2.564 0-4.274-1.71-4.274-4.274s1.71-4.274 4.274-4.274c2.564 0 4.274 1.71 4.274 4.274s-1.71 4.274-4.274 4.274zm0-17.076c-7.032 0-12.821 5.789-12.821 12.821s5.789 12.821 12.821 12.821 12.821-5.789 12.821-12.821-5.789-12.821-12.821-12.821z"/>
<path fill="#E48E00" d="M104.285 93.479c-2.564 0-4.274-1.71-4.274-4.274s1.71-4.274 4.274-4.274c2.564 0 4.274 1.71 4.274 4.274s-1.71 4.274-4.274 4.274zm0-17.076c-7.032 0-12.821 5.789-12.821 12.821s5.789 12.821 12.821 12.821 12.821-5.789 12.821-12.821-5.789-12.821-12.821-12.821z"/>
<path fill="white" d="M64 25.715c-18.205 0-33.391 12.821-37.665 30.244h75.33c-4.274-17.423-19.46-30.244-37.665-30.244zm-23.715 21.368c-2.564 0-4.274-1.71-4.274-4.274s1.71-4.274 4.274-4.274c2.564 0 4.274 1.71 4.274 4.274s-1.71 4.274-4.274 4.274zm47.43 0c-2.564 0-4.274-1.71-4.274-4.274s1.71-4.274 4.274-4.274c2.564 0 4.274 1.71 4.274 4.274s-1.71 4.274-4.274 4.274z"/>
<text x="64" y="100" font-family="Arial, sans-serif" font-size="14" font-weight="bold" text-anchor="middle" fill="white">MySQL</text>
</svg>
