
<svg xmlns="http://www.w3.org/2000/svg" viewBox="0 0 128 128">
<path fill="#83CD29" d="M112.771 30.334L68.674 4.729c-2.781-1.584-6.402-1.584-9.205 0L14.901 30.334C12.031 31.985 10 35.088 10 38.407v51.142c0 3.319 2.084 6.423 4.954 8.083l11.775 6.688c5.628 2.772 7.617 2.772 10.178 2.772 8.333 0 13.093-5.039 13.093-13.828v-50.49c0-.713-.371-1.774-1.071-1.774h-5.623C42.594 40 41 41.723 41 42.606v50.49c0 4.917-1.517 5.818-8.215 5.818-3.145 0-11.459-1.369-11.459-1.369l-11.775-6.688c-1.062-.606-1.548-1.21-1.548-2.772V38.407c0-1.595.486-2.166 1.548-2.772L54.055 10.166c1.062-.606 2.656-.606 3.666 0L102.325 35.635c1.062.606 1.548 1.177 1.548 2.772v51.142c0 1.562-.486 2.166-1.548 2.772L57.721 117.879c-1.062.606-2.604.606-3.666 0L44.583 111.253c-.8-.45-1.806-.726-2.161-1.29-.355-.565-.355-1.474 0-2.04.355-.565.645-.706 1.290-.706.645 0 1.555.565 2.161.706l8.951 5.052c.355.2.71.2 1.065 0l41.572-23.979c.355-.2.71-.706.71-1.211V38.407c0-.565-.355-1.011-.71-1.211L55.89 13.229c-.355-.2-.71-.2-1.065 0L13.253 37.196c-.355.2-.71.646-.71 1.211v51.142c0 .565.355 1.011.71 1.211L55.89 114.739c.355.2.71.2 1.065 0l41.572-23.979c.355-.2.71-.646.71-1.211V38.407c0-.565-.355-1.011-.71-1.211z"/>
<path fill="#404137" d="M87.027 61.615c0-4.173-2.425-6.901-6.901-8.314-4.477-1.414-9.681-1.939-9.681-4.249 0-1.789 1.414-2.425 3.708-2.425 2.319 0 4.249.636 5.663 2.783.424.636 1.060.636 1.060.636h6.476c.636 0 1.060-.424 1.060-1.060 0-3.131-1.939-5.663-5.025-7.177-3.131-1.514-7.177-1.939-11.424-1.939-7.601 0-12.909 3.131-12.909 9.681 0 6.476 5.308 8.314 11.424 9.681 4.901 1.060 5.663 2.425 5.663 4.249 0 2.319-1.789 3.708-4.901 3.708-4.477 0-6.476-1.414-7.177-4.249-.212-.636-.636-1.060-1.060-1.060h-6.476c-.636 0-1.060.424-1.060 1.060 0 4.901 3.131 8.738 9.257 10.177 2.319.424 6.053.636 9.681.636 8.526 0 13.434-3.555 13.434-10.177z"/>
</svg>
