
<svg xmlns="http://www.w3.org/2000/svg" viewBox="0 0 128 128">
<path fill="#336791" d="M93.809 92.112c.785 6.112 2.395 8.811 5.603 8.811 3.355 0 8.374-2.663 12.05-6.302 2.409-2.394 3.842-5.148 3.842-8.072 0-5.311-3.213-7.801-8.911-7.801-5.853 0-12.584 3.221-12.584 13.364z"/>
<path fill="#336791" d="M75.221 96.739c-6.112 0-10.926-3.842-10.926-8.811 0-2.893 1.893-5.148 5.018-5.148 2.832 0 5.148 2.255 5.148 5.148 0 4.969-4.814 8.811-10.926 8.811z"/>
<ellipse cx="64" cy="32" rx="45" ry="20" fill="#336791"/>
<path fill="#336791" d="M27.5 49.5c-8.5 5.5-13.5 15.5-13.5 26.5s5 21 13.5 26.5c8.5-5.5 13.5-15.5 13.5-26.5s-5-21-13.5-26.5z"/>
<path fill="#336791" d="M100.5 49.5c8.5 5.5 13.5 15.5 13.5 26.5s-5 21-13.5 26.5c-8.5-5.5-13.5-15.5-13.5-26.5s5-21 13.5-26.5z"/>
<text x="64" y="108" font-family="Arial, sans-serif" font-size="10" text-anchor="middle" fill="white">PostgreSQL</text>
</svg>
