
<svg xmlns="http://www.w3.org/2000/svg" viewBox="0 0 128 128">
<path fill="#0065A9" d="M95.68 10.14L122.12.2c1.24-.46 2.54-.2 3.63.63.98.74 1.6 1.9 1.6 3.17v120c0 1.27-.62 2.43-1.6 3.17-1.09.83-2.39 1.09-3.63.63l-26.44-9.94L51.52 127c-.83.31-1.73.31-2.56 0L.93 115.86C.4 115.68 0 115.35 0 114.95V13.05c0-.4.4-.73.93-.91L49.96 1c.83-.31 1.73-.31 2.56 0L95.68 10.14z"/>
<path fill="#007ACC" d="M95.68 10.14v107.72L51.52 127l-44.03-11.14L95.68 10.14z"/>
<path fill="#1F9CF0" d="M95.68 10.14L51.52 1 7.49 12.14 51.52 127l44.16-9.14V10.14z"/>
<path fill="white" d="M37.8 64L18.5 45.2l6.8-6.8L64 77.1l38.7-38.7 6.8 6.8L90.2 64l19.3 18.8-6.8 6.8L64 50.9 25.3 89.6l-6.8-6.8L37.8 64z"/>
</svg>
